<?xml version="1.0" encoding="UTF-8"?>
<svg width="107px" height="19px" viewBox="0 0 107 19" version="1.1" xmlns="http://www.w3.org/2000/svg" xmlns:xlink="http://www.w3.org/1999/xlink">
    <!-- Generator: Sketch 57.1 (83088) - https://sketch.com -->
    <title>107*19</title>
    <desc>Created with Sketch.</desc>
    <g id="107*19" stroke="none" stroke-width="1" fill="none" fill-rule="evenodd">
        <g id="编组" transform="translate(0.000000, 1.456056)">
            <polygon id="Fill-1" fill="#C32639" points="-6.21724894e-15 6.17964775 -6.21724894e-15 7.79629211 7.93135309 11.3608027 7.93135309 9.64690593 1.92284836 6.99255065 7.93135309 4.35334702 7.93135309 2.63240302"></polygon>
            <polygon id="Fill-2" fill="#231F20" points="12.6312145 0.870690545 14.9719661 0.870690545 14.9719661 5.53633745 20.1844814 5.53633745 20.1844814 0.870690545 22.5252331 0.870690545 22.5252331 12.5187753 20.1844814 12.5187753 20.1844814 7.40210291 14.9719661 7.40210291 14.9719661 12.5187753 12.6312145 12.5187753"></polygon>
            <path d="M29.5169733,10.7082957 C30.35877,10.7082957 31.0723064,10.5222477 31.6568776,10.1494469 C32.2403918,9.77664622 32.6780275,9.26466185 32.9676704,8.61278913 C33.2576656,7.96197349 33.4021347,7.21425785 33.4021347,6.37246113 C33.4021347,5.15574949 33.0899405,4.2360804 32.4651998,3.61345385 C31.8401067,2.99153204 30.9105715,2.68039495 29.6776511,2.68039495 L28.14945,2.68039495 L28.14945,10.7082957 L29.5169733,10.7082957 Z M25.808346,0.870655309 L29.8390336,0.870655309 C31.0934482,0.870655309 32.1671002,1.07678804 33.060342,1.48975822 C33.9532315,1.9027284 34.6364645,2.5151364 35.1114507,3.32803931 C35.5864369,4.14023749 35.8232253,5.13073167 35.8232253,6.30057895 C35.8232253,7.49650113 35.5751613,8.56486767 35.0793856,9.50532622 C34.58361,10.4468419 33.8686642,11.1843389 32.9356053,11.7178175 C32.002194,12.2516484 30.9056384,12.51874 29.6459384,12.51874 L25.808346,12.51874 L25.808346,0.870655309 Z" id="Fill-3" fill="#231F20"></path>
            <path d="M40.3938045,11.9993913 C39.5143048,11.546604 38.8402332,10.8827509 38.3708848,10.0085367 C37.9015365,9.13432255 37.6668623,8.08146 37.6668623,6.84748255 C37.6668623,5.57086909 37.9138692,4.47184691 38.4071783,3.54935891 C38.900135,2.62651855 39.5893583,1.92284836 40.4744957,1.43729127 C41.3596332,0.952438909 42.3726787,0.709308 43.5150416,0.709308 C44.1475343,0.709308 44.7546568,0.781894909 45.3367616,0.926364 C45.9185139,1.07118545 46.4509354,1.27238509 46.9336736,1.52996291 L46.3942048,3.25936364 C45.4456419,2.77204473 44.5231539,2.52750436 43.6277979,2.52750436 C42.8716256,2.52750436 42.2268001,2.69910545 41.6933216,3.04230764 C41.1591383,3.38550982 40.7556819,3.87388582 40.4826001,4.50602618 C40.2091659,5.13922364 40.0720965,5.88482509 40.0720965,6.74283055 C40.0720965,7.55291455 40.2010616,8.26609855 40.4586394,8.88238255 C40.7162172,9.49866655 41.1196736,9.98281418 41.6690085,10.3337684 C42.2183434,10.6854273 42.9167281,10.8609044 43.7641627,10.8609044 C44.6655088,10.8609044 45.6063197,10.6413818 46.5876525,10.2012796 L47.0865994,11.8986153 C46.5929379,12.1456222 46.0598117,12.3369556 45.4858114,12.4740251 C44.9121634,12.6107422 44.2631096,12.6787484 43.5386499,12.6787484 C42.3215859,12.6787484 41.2733041,12.4525309 40.3938045,11.9993913" id="Fill-5" fill="#231F20"></path>
            <path d="M49.0146627,12.3015079 C48.7704747,12.0654242 48.6489093,11.7599249 48.6489093,11.3839529 C48.6489093,10.9984671 48.7704747,10.6841588 49.0146627,10.443142 C49.2584984,10.2014206 49.575978,10.0809122 49.9678064,10.0809122 C50.35893,10.0809122 50.6781715,10.20283 50.924826,10.4466657 C51.1714805,10.6908537 51.2951602,11.0030479 51.2951602,11.3839529 C51.2951602,11.7599249 51.1714805,12.0654242 50.924826,12.3015079 C50.6781715,12.5372391 50.35893,12.6552809 49.9678064,12.6552809 C49.575978,12.6552809 49.2584984,12.5372391 49.0146627,12.3015079" id="Fill-7" fill="#231F20"></path>
            <polygon id="Fill-9" fill="#C32639" points="98.7371535 9.64672975 104.762219 6.99237447 98.7371535 4.3535232 98.7371535 2.63222684 106.676259 6.17947156 106.676259 7.79646829 98.7371535 11.3599217"></polygon>
            <polygon id="Fill-11" fill="#231F20" points="38.5337825 16.5255374 46.2195382 16.5255374 46.2195382 15.6227818 38.5337825 15.6227818"></polygon>
            <path d="M55.3840231,12.0338172 C54.5002951,11.5785634 53.8230521,10.9118914 53.351942,10.0341536 C52.8804794,9.15641575 52.6451005,8.09791538 52.6451005,6.85900484 C52.6451005,5.57745829 52.8928121,4.47315065 53.3882354,3.54678665 C53.8836587,2.62042265 54.5760532,1.91322884 55.4647143,1.42626229 C56.3533754,0.938591018 57.371354,0.694755382 58.51865,0.694755382 C59.1539616,0.694755382 59.7639031,0.767342291 60.3484743,0.912868473 C60.9326932,1.05839465 61.4675812,1.26029902 61.9520812,1.51893393 L61.4108507,3.25573429 C60.4573547,2.76559647 59.5313431,2.52070375 58.6317587,2.52070375 C57.8724151,2.52070375 57.2247707,2.69300956 56.6884732,3.0376212 C56.1528805,3.38223284 55.74731,3.87272302 55.4728187,4.50838702 C55.1983274,5.14369865 55.0605532,5.89211902 55.0605532,6.75435284 C55.0605532,7.56725575 55.1898707,8.28361102 55.4485056,8.90306629 C55.7071405,9.52252156 56.1120063,10.0087834 56.6645125,10.3614994 C57.216314,10.7142154 57.91787,10.8903972 58.7688281,10.8903972 C59.6740503,10.8903972 60.6190896,10.6698176 61.6046507,10.2279536 L62.1057118,11.9326888 C61.6099361,12.1804005 61.0739911,12.3731434 60.4978765,12.5105652 C59.9214096,12.6476347 59.2698892,12.7163456 58.5429631,12.7163456 C57.3199089,12.7163456 56.2670463,12.489071 55.3840231,12.0338172" id="Fill-13" fill="#231F20"></path>
            <path d="M63.6428981,12.1466793 C63.268688,11.7671836 63.0815829,11.1702796 63.0815829,10.3573767 L63.0815829,0.161382545 L65.4001356,-9.76996262e-15 L65.4001356,9.93700691 C65.4001356,10.2876087 65.4660276,10.5339109 65.598164,10.6762658 C65.7303003,10.8189731 65.9226909,10.8905029 66.175688,10.8905029 C66.3427083,10.8905029 66.5340418,10.8556189 66.749336,10.7854985 L67.0160752,12.4176469 C66.8004287,12.5089091 66.5326323,12.581496 66.2123338,12.63576 C65.8916829,12.6893193 65.5861836,12.7164513 65.2951312,12.7164513 C64.5682051,12.7164513 64.0171083,12.5265273 63.6428981,12.1466793" id="Fill-14" fill="#231F20"></path>
            <path d="M73.5909693,8.29717702 C73.5909693,7.3651752 73.4320533,6.64635338 73.1138689,6.14000684 C72.7963893,5.63366029 72.3196413,5.3806632 71.6843296,5.3806632 C71.0377424,5.3806632 70.5585278,5.6364792 70.2459813,6.1481112 C69.9337871,6.66009556 69.77769,7.3651752 69.77769,8.26475956 C69.77769,9.13192647 69.9471769,9.80141738 70.2865031,10.2721752 C70.6258293,10.7436377 71.1184336,10.979369 71.7646685,10.979369 C72.9820849,10.979369 73.5909693,10.0854225 73.5909693,8.29717702 M69.4665529,12.2154607 C68.82807,11.8817723 68.3259518,11.3835301 67.959846,10.7207341 C67.5933878,10.0582905 67.4105111,9.25032065 67.4105111,8.29717702 C67.4105111,7.33311011 67.5933878,6.5008272 67.959846,5.80068065 C68.3259518,5.10088647 68.8347649,4.56599847 69.4866376,4.19707375 C70.138158,3.82814902 70.8897496,3.64351047 71.7407078,3.64351047 C72.5754573,3.64351047 73.3122496,3.82568247 73.9503802,4.18896938 C74.5885107,4.55260865 75.0853435,5.07763047 75.4408784,5.7643872 C75.7964133,6.45114393 75.9743569,7.26580865 75.9743569,8.20838138 C75.9743569,9.16716284 75.789366,9.98429411 75.4204413,10.6601276 C75.0518689,11.3363134 74.5398845,11.8479454 73.8855453,12.1953759 C73.231206,12.5428065 72.4838427,12.7165217 71.6438078,12.7165217 C70.8305525,12.7165217 70.1046835,12.5495014 69.4665529,12.2154607" id="Fill-15" fill="#231F20"></path>
            <path d="M78.0003421,11.8840979 C77.5154897,11.3294775 77.2734159,10.5134033 77.2734159,9.43622771 L77.2734159,3.8132088 L79.5676556,3.8132088 L79.5676556,9.27484516 C79.5676556,9.83510335 79.6726599,10.245607 79.8826687,10.5067084 C80.0926774,10.7681623 80.4105094,10.8985368 80.8361647,10.8985368 C81.2237647,10.8985368 81.5902228,10.8005797 81.9348345,10.6036084 C82.2794461,10.4073419 82.607849,10.1469452 82.9203956,9.82382771 L82.9203956,3.8132088 L85.2311963,3.8132088 L85.2311963,10.3573063 C85.2311963,11.0951557 85.2555094,11.8277197 85.3037832,12.5546459 L83.1222999,12.5546459 C83.0898825,12.3823401 83.0564079,12.1617604 83.0215239,11.8922023 C82.9862876,11.6229964 82.9633839,11.396779 82.952813,11.2139023 C82.6888927,11.5046023 82.4302577,11.7551328 82.1772607,11.9647892 C81.9239112,12.1751503 81.6184119,12.3527415 81.2600581,12.4982677 C80.9017043,12.6434415 80.4968385,12.7163808 80.0444036,12.7163808 C79.1666657,12.7163808 78.4851945,12.4390706 78.0003421,11.8840979" id="Fill-16" fill="#231F20"></path>
            <path d="M91.7494303,10.6240103 C92.0993273,10.4298579 92.3738186,10.2064594 92.5732564,9.95346229 L92.5732564,5.57463938 C92.1049652,5.39669575 91.6335026,5.30790011 91.1595735,5.30790011 C90.5080532,5.30790011 89.9936023,5.57604884 89.6162208,6.11164156 C89.2391917,6.64793902 89.0510295,7.43547175 89.0510295,8.47459211 C89.0510295,9.3206172 89.1990223,9.93866302 89.4953601,10.3290819 C89.7913455,10.7195008 90.1711935,10.9147103 90.6341993,10.9147103 C91.0274372,10.9147103 91.3991808,10.8178103 91.7494303,10.6240103 L91.7494303,10.6240103 Z M92.7512001,12.5546107 C92.6810797,12.2262077 92.6271681,11.857283 92.5894652,11.4478365 C92.2445012,11.8516452 91.8650055,12.1641917 91.4502735,12.3851237 C91.0355415,12.6060557 90.5454037,12.7163456 89.9802124,12.7163456 C89.3656903,12.7163456 88.8124793,12.5722288 88.319875,12.2839954 C87.8269183,11.9961143 87.432271,11.5383939 87.1359332,10.9104819 C86.8395953,10.2832747 86.6916026,9.48235211 86.6916026,8.50700956 C86.6916026,7.50523975 86.858623,6.63948229 87.1926637,5.9097372 C87.5267044,5.17999211 88.0164899,4.62008629 88.6630772,4.22966738 C89.3093121,3.83889611 90.0901499,3.64333429 91.0062953,3.64333429 C91.5070041,3.64333429 92.029207,3.72437793 92.5732564,3.88611284 L92.5732564,0.1616292 L94.8840572,0.000246654545 L94.8840572,10.3896885 C94.8840572,11.1060437 94.9083703,11.8276845 94.9566441,12.5546107 L92.7512001,12.5546107 Z" id="Fill-17" fill="#231F20"></path>
        </g>
    </g>
</svg>