<?xml version="1.0" encoding="UTF-8"?>
<svg width="84px" height="28px" viewBox="0 0 84 28" version="1.1" xmlns="http://www.w3.org/2000/svg" xmlns:xlink="http://www.w3.org/1999/xlink">
    <!-- Generator: Sketch 52.3 (67297) - http://www.bohemiancoding.com/sketch -->
    <title>Group 4</title>
    <desc>Created with Sketch.</desc>
    <defs>
        <radialGradient cx="155.074751%" cy="-8.83376428%" fx="155.074751%" fy="-8.83376428%" r="203.183746%" gradientTransform="translate(1.550748,-0.088338),scale(1.000000,0.755874),translate(-1.550748,0.088338)" id="radialGradient-1">
            <stop stop-color="#F8C797" offset="0%"></stop>
            <stop stop-color="#E6211A" offset="42.7%"></stop>
            <stop stop-color="#E4211A" offset="67.46%"></stop>
            <stop stop-color="#DD211B" offset="77.4%"></stop>
            <stop stop-color="#D1201C" offset="84.68%"></stop>
            <stop stop-color="#BF1F1E" offset="90.66%"></stop>
            <stop stop-color="#A91E20" offset="95.78%"></stop>
            <stop stop-color="#901D22" offset="100%"></stop>
        </radialGradient>
        <radialGradient cx="173.24055%" cy="-542.640801%" fx="173.24055%" fy="-542.640801%" r="661.244622%" gradientTransform="translate(1.732406,-5.426408),scale(0.354396,1.000000),translate(-1.732406,5.426408)" id="radialGradient-2">
            <stop stop-color="#F8C797" offset="0%"></stop>
            <stop stop-color="#E6211A" offset="42.7%"></stop>
            <stop stop-color="#E4211A" offset="67.46%"></stop>
            <stop stop-color="#DD211B" offset="77.4%"></stop>
            <stop stop-color="#D1201C" offset="84.68%"></stop>
            <stop stop-color="#BF1F1E" offset="90.66%"></stop>
            <stop stop-color="#A91E20" offset="95.78%"></stop>
            <stop stop-color="#901D22" offset="100%"></stop>
        </radialGradient>
        <radialGradient cx="154.594942%" cy="-122.970668%" fx="154.594942%" fy="-122.970668%" r="290.783276%" gradientTransform="translate(1.545949,-1.229707),scale(0.616783,1.000000),translate(-1.545949,1.229707)" id="radialGradient-3">
            <stop stop-color="#F8C797" offset="0%"></stop>
            <stop stop-color="#E6211A" offset="42.7%"></stop>
            <stop stop-color="#E4211A" offset="67.46%"></stop>
            <stop stop-color="#DD211B" offset="77.4%"></stop>
            <stop stop-color="#D1201C" offset="84.68%"></stop>
            <stop stop-color="#BF1F1E" offset="90.66%"></stop>
            <stop stop-color="#A91E20" offset="95.78%"></stop>
            <stop stop-color="#901D22" offset="100%"></stop>
        </radialGradient>
        <radialGradient cx="167.52514%" cy="16.1623407%" fx="167.52514%" fy="16.1623407%" r="340.876648%" gradientTransform="translate(1.675251,0.161623),scale(1.000000,0.362674),translate(-1.675251,-0.161623)" id="radialGradient-4">
            <stop stop-color="#F8C797" offset="0%"></stop>
            <stop stop-color="#E6211A" offset="42.7%"></stop>
            <stop stop-color="#E4211A" offset="67.46%"></stop>
            <stop stop-color="#DD211B" offset="77.4%"></stop>
            <stop stop-color="#D1201C" offset="84.68%"></stop>
            <stop stop-color="#BF1F1E" offset="90.66%"></stop>
            <stop stop-color="#A91E20" offset="95.78%"></stop>
            <stop stop-color="#901D22" offset="100%"></stop>
        </radialGradient>
        <radialGradient cx="53.8810666%" cy="16.6660613%" fx="53.8810666%" fy="16.6660613%" r="338.877966%" gradientTransform="translate(0.538811,0.166661),scale(1.000000,0.365842),translate(-0.538811,-0.166661)" id="radialGradient-5">
            <stop stop-color="#F8C797" offset="0%"></stop>
            <stop stop-color="#E6211A" offset="42.7%"></stop>
            <stop stop-color="#E4211A" offset="67.46%"></stop>
            <stop stop-color="#DD211B" offset="77.4%"></stop>
            <stop stop-color="#D1201C" offset="84.68%"></stop>
            <stop stop-color="#BF1F1E" offset="90.66%"></stop>
            <stop stop-color="#A91E20" offset="95.78%"></stop>
            <stop stop-color="#901D22" offset="100%"></stop>
        </radialGradient>
        <radialGradient cx="10.0796271%" cy="-528.357996%" fx="10.0796271%" fy="-528.357996%" r="667.062272%" gradientTransform="translate(0.100796,-5.283580),scale(0.354396,1.000000),translate(-0.100796,5.283580)" id="radialGradient-6">
            <stop stop-color="#F8C797" offset="0%"></stop>
            <stop stop-color="#E6211A" offset="42.7%"></stop>
            <stop stop-color="#E4211A" offset="67.46%"></stop>
            <stop stop-color="#DD211B" offset="77.4%"></stop>
            <stop stop-color="#D1201C" offset="84.68%"></stop>
            <stop stop-color="#BF1F1E" offset="90.66%"></stop>
            <stop stop-color="#A91E20" offset="95.78%"></stop>
            <stop stop-color="#901D22" offset="100%"></stop>
        </radialGradient>
        <radialGradient cx="8.89722449%" cy="-122.943513%" fx="8.89722449%" fy="-122.943513%" r="292.581333%" gradientTransform="translate(0.088972,-1.229435),scale(0.616783,1.000000),translate(-0.088972,1.229435)" id="radialGradient-7">
            <stop stop-color="#F8C797" offset="0%"></stop>
            <stop stop-color="#E6211A" offset="42.7%"></stop>
            <stop stop-color="#E4211A" offset="67.46%"></stop>
            <stop stop-color="#DD211B" offset="77.4%"></stop>
            <stop stop-color="#D1201C" offset="84.68%"></stop>
            <stop stop-color="#BF1F1E" offset="90.66%"></stop>
            <stop stop-color="#A91E20" offset="95.78%"></stop>
            <stop stop-color="#901D22" offset="100%"></stop>
        </radialGradient>
        <radialGradient cx="17.1125081%" cy="-8.84528496%" fx="17.1125081%" fy="-8.84528496%" r="203.513925%" gradientTransform="translate(0.171125,-0.088453),scale(1.000000,0.759960),translate(-0.171125,0.088453)" id="radialGradient-8">
            <stop stop-color="#F8C797" offset="0%"></stop>
            <stop stop-color="#E6211A" offset="42.7%"></stop>
            <stop stop-color="#E4211A" offset="67.46%"></stop>
            <stop stop-color="#DD211B" offset="77.4%"></stop>
            <stop stop-color="#D1201C" offset="84.68%"></stop>
            <stop stop-color="#BF1F1E" offset="90.66%"></stop>
            <stop stop-color="#A91E20" offset="95.78%"></stop>
            <stop stop-color="#901D22" offset="100%"></stop>
        </radialGradient>
        <path d="M1.76944444,7.63125 C1.8537037,9.225 3.00925926,10.16875 3.00925926,10.16875 C4.875,12.0499375 9.39490741,14.4249375 10.4421296,14.9625625 C10.4541667,14.96875 10.5083333,14.9874375 10.5444444,14.9438125 C10.5444444,14.9438125 10.5865741,14.90625 10.5625,14.8500625 C7.68564815,8.35625 3.75555556,3.4313125 3.75555556,3.4313125 C3.75555556,3.4313125 1.61302315,5.53125 1.76944444,7.63125" id="path-9"></path>
        <path d="M2.22685185,16.75 C3.04537037,18.25625 4.41759259,19.4249375 5.85,19.0625 C6.83703704,18.80625 9.07592593,17.1938125 9.81018519,16.6500625 C9.86435185,16.59375 9.8462963,16.55625 9.8462963,16.55625 C9.82824074,16.4875 9.75,16.4875 9.75,16.4875 L2.22685185,16.75 Z" id="path-11"></path>
        <path d="M0.427314815,13.2625 C1.23981481,15.04375 2.79861111,15.5875 2.79861111,15.5875 C3.52083333,15.89375 4.23703704,15.9125625 4.23703704,15.9125625 C4.35138889,15.93125 8.70885648,15.9125625 9.87638889,15.90625 C9.92453704,15.90625 9.95462963,15.85625 9.95462963,15.85625 C9.99074074,15.79375 9.92453704,15.7375 9.92453704,15.7375 C6.62037037,13.43125 0.216666667,9.89375 0.216666667,9.89375 C-0.361111111,11.7563125 0.427314815,13.2625 0.427314815,13.2625" id="path-13"></path>
        <path d="M10.4105324,0.06875 C10.0487593,0.11875 9.24444444,0.30625 9.24444444,0.30625 C7.25225463,0.8375625 6.78287037,2.70625 6.78287037,2.70625 C6.42175926,3.88125 6.79490741,5.1750625 6.79490741,5.1750625 C7.45694444,8.225 10.7310185,13.2374375 11.4351852,14.2875625 C11.4833333,14.3375625 11.525463,14.31875 11.525463,14.31875 C11.6037037,14.29375 11.5976852,14.21875 11.5976852,14.21875 C12.6523704,3.320875 10.5752593,0.2248125 10.4647593,0.06875 L10.4105324,0.06875 Z" id="path-15"></path>
        <path d="M12.8856481,14.2375 C12.8976852,14.30625 12.9458333,14.325 12.9458333,14.325 C13.0180556,14.35625 13.0541065,14.28125 13.0541065,14.28125 C13.7763889,13.2 17.0263889,8.21875 17.6884259,5.18125 C17.6884259,5.18125 18.049537,3.7125625 17.700463,2.7125 C17.700463,2.7125 17.2069444,0.8125 15.2148148,0.3125 C15.2148148,0.3125 14.6430556,0.1625 14.0291667,0.075 C14.0259167,0.081125 11.8046019,3.0606875 12.8856481,14.2375" id="path-17"></path>
        <path d="M14.6430556,16.5499375 C14.6430556,16.5499375 14.625,16.61875 14.6731481,16.65625 C15.3953704,17.1875 17.5740741,18.76875 18.6272546,19.075 C18.6272546,19.075 20.5667222,19.7610625 22.2564815,16.766875 L22.2564815,16.7560625 L14.7273148,16.4875 C14.7273148,16.4875 14.6611111,16.49375 14.6430556,16.5499375" id="path-19"></path>
        <path d="M24.2501157,9.8813125 C23.9604444,10.048 17.7907407,13.4794375 14.5587963,15.73125 C14.5587963,15.73125 14.4986111,15.775 14.5226852,15.84375 C14.5226852,15.84375 14.552838,15.9 14.6009259,15.9 C15.7865741,15.9 20.2643519,15.90625 20.3787037,15.8875 C20.3787037,15.8875 20.9564815,15.8625 21.6726852,15.58125 C21.6726852,15.58125 23.2675926,15.05625 24.0921898,13.1875 C24.0921898,13.1875 24.8307222,11.666125 24.2626944,9.8813125 L24.2501157,9.8813125 Z" id="path-21"></path>
        <path d="M13.9328704,14.81875 C13.9328704,14.81875 13.9027778,14.89375 13.9569444,14.9438125 C13.9569444,14.9438125 14.0111713,14.98125 14.0592593,14.95 C15.1365741,14.39375 19.6203704,12.0375625 21.4800926,10.16875 C21.4800926,10.16875 22.6537037,9.19375 22.7199074,7.625 C22.8523148,5.44375 20.7337963,3.4313125 20.7337963,3.4313125 C20.7337963,3.4313125 16.8097222,8.3375 13.9328704,14.81875" id="path-23"></path>
    </defs>
    <g id="最终版本-1031" stroke="none" stroke-width="1" fill="none" fill-rule="evenodd">
        <g id="菜单-产品-企业应用" transform="translate(-68.000000, -6.000000)">
            <g id="Group-21-Copy-6">
                <g id="logo" transform="translate(20.000000, 5.000000)">
                    <g id="XMLID_254_">
                        <g id="XMLID_255_">
                            <g id="Group-4" transform="translate(48.000000, 1.000000)">
                                <g id="Group-2">
                                    <g id="Group-18" transform="translate(0.933167, 0.017077)">
                                        <g id="Group-36">
                                            <g id="XMLID_16_" fill-rule="nonzero">
                                                <path d="M10.4457672,15.0003342 C10.4457672,15.0003342 10.505291,14.9381684 10.4457672,14.8760027 C7.58862087,8.41076203 3.66004471,3.4375 3.66004471,3.4375 C3.66004471,3.4375 1.51718498,5.55113636 1.69575663,7.66477273 C1.75528051,9.28108289 2.94575813,10.2135695 2.94575813,10.2135695 C4.79099845,12.0785428 9.31481342,14.503008 10.3862433,15.0625 C10.3267194,15.0625 10.3862433,15.0625 10.4457672,15.0003342 Z" id="XMLID_26_" fill="url(#radialGradient-1)"></path>
                                                <path d="M9.75,16.5638099 C9.75,16.5 9.63151042,16.5 9.63151042,16.5 L2.16666667,16.7552394 C2.99609375,18.286676 4.35872396,19.4990633 5.78059896,19.1162041 C6.78776042,18.8609647 8.97981771,17.2019084 9.69075521,16.6276197 C9.75,16.5638099 9.75,16.5638099 9.75,16.5638099 Z" id="XMLID_25_" fill="url(#radialGradient-2)"></path>
                                                <path d="M9.90416254,15.9375 C9.96354683,15.875 9.90416254,15.8125 9.90416254,15.8125 C6.63802681,13.5 0.224523921,9.875 0.224523921,9.875 C-0.369318939,11.75 0.402676779,13.3125 0.402676779,13.3125 C1.23405678,15.125 2.77804822,15.6875 2.77804822,15.6875 C3.49065965,16 4.20327108,16 4.20327108,16 C4.32203966,16 8.65709253,16 9.78539397,16 C9.90416254,16 9.90416254,15.9375 9.90416254,15.9375 Z" id="XMLID_24_" fill="url(#radialGradient-3)"></path>
                                                <path d="M10.4091915,0 C10.1116401,0 9.2189859,0.248922414 9.2189859,0.248922414 C7.25514668,0.808997845 6.77906445,2.67591595 6.77906445,2.67591595 C6.42200277,3.85829741 6.77906445,5.16514009 6.77906445,5.16514009 C7.43367752,8.21443966 10.7067429,13.3173491 11.4208662,14.3752694 C11.4803765,14.4375 11.4803765,14.4375 11.4803765,14.4375 C11.5398868,14.4375 11.5398868,14.3130388 11.5398868,14.3130388 C12.6705821,2.98706897 10.4091915,0 10.4091915,0 Z" id="XMLID_23_" fill="url(#radialGradient-4)"></path>
                                                <path d="M12.8694309,14.3125 C12.928526,14.3125 12.9876212,14.2505411 12.9876212,14.2505411 C13.6967629,13.1972403 16.946996,8.17857143 17.5970426,5.14258658 C17.5970426,5.14258658 17.9516135,3.65557359 17.5970426,2.6642316 C17.5970426,2.6642316 17.1242814,0.743506494 15.1150464,0.247835498 C15.1150464,0.247835498 14.524095,0.123917749 13.9331435,0 C13.9331435,0 11.7466231,2.97402597 12.8103357,14.1885823 C12.8103357,14.3125 12.8694309,14.3125 12.8694309,14.3125 Z" id="XMLID_22_" fill="url(#radialGradient-5)"></path>
                                                <path d="M14.6847113,16.5 C14.6847113,16.5 14.625,16.5 14.625,16.5624185 C14.625,16.5624185 14.625,16.624837 14.625,16.6872555 C15.3415354,17.2490221 17.550853,18.8094848 18.5659449,19.1215773 C18.5659449,19.1215773 20.5364173,19.8081809 22.2083333,16.749674 L14.6847113,16.5 Z" id="XMLID_21_" fill="url(#radialGradient-6)"></path>
                                                <path d="M24.2943482,9.875 C24.2943482,9.875 17.9074766,13.4375 14.6245052,15.8125 C14.6245052,15.8125 14.5648148,15.875 14.5648148,15.9375 C14.5648148,15.9375 14.6245052,16 14.6245052,16 C15.818313,16 20.2950921,16 20.4144729,16 C20.4144729,16 21.0113768,16 21.7276615,15.6875 C21.7276615,15.6875 23.339302,15.1875 24.1749674,13.25 C24.115277,13.25 24.8315617,11.6875 24.2943482,9.875 Z" id="XMLID_20_" fill="url(#radialGradient-7)"></path>
                                                <path d="M13.9292499,14.9724374 C13.9292499,14.9724374 13.9888121,15.0344532 14.0483743,14.9724374 C15.1204944,14.4142953 19.5876614,12.0576952 21.4340905,10.1972214 C21.4340905,10.1972214 22.625335,9.20496871 22.6848973,7.6545739 C22.8040217,5.48402116 20.7193438,3.4375 20.7193438,3.4375 C20.7193438,3.4375 16.7882368,8.39876341 13.9292499,14.8484058 C13.9292499,14.8484058 13.8696877,14.9724374 13.9292499,14.9724374 Z" id="XMLID_19_" fill="url(#radialGradient-8)"></path>
                                            </g>
                                            <mask id="mask-10" fill="white">
                                                <use xlink:href="#path-9"></use>
                                            </mask>
                                            <g id="Clip-13"></g>
                                            <mask id="mask-12" fill="white">
                                                <use xlink:href="#path-11"></use>
                                            </mask>
                                            <g id="Clip-16"></g>
                                            <mask id="mask-14" fill="white">
                                                <use xlink:href="#path-13"></use>
                                            </mask>
                                            <g id="Clip-19"></g>
                                            <mask id="mask-16" fill="white">
                                                <use xlink:href="#path-15"></use>
                                            </mask>
                                            <g id="Clip-22"></g>
                                            <mask id="mask-18" fill="white">
                                                <use xlink:href="#path-17"></use>
                                            </mask>
                                            <g id="Clip-25"></g>
                                            <mask id="mask-20" fill="white">
                                                <use xlink:href="#path-19"></use>
                                            </mask>
                                            <g id="Clip-28"></g>
                                            <mask id="mask-22" fill="white">
                                                <use xlink:href="#path-21"></use>
                                            </mask>
                                            <g id="Clip-31"></g>
                                            <mask id="mask-24" fill="white">
                                                <use xlink:href="#path-23"></use>
                                            </mask>
                                            <g id="Clip-34"></g>
                                        </g>
                                    </g>
                                    <path d="M4.83963056,26.9765625 L3.87854838,26.9765625 L3.87854838,24.9086914 L1.92676164,24.9086914 L1.92676164,26.9765625 L0.965679459,26.9765625 L0.965679459,22 L1.92676164,22 L1.92676164,24.1396484 L3.87854838,24.1396484 L3.87854838,22 L4.83963056,22 L4.83963056,26.9765625 Z M9.5199691,22 L9.5199691,25.2573242 C9.5199691,25.8178739 9.34113939,26.2565088 8.9834746,26.5732422 C8.62580981,26.8899755 8.16173025,27.0483398 7.59122199,27.0483398 C7.022908,27.0483398 6.56157123,26.8899755 6.20719783,26.5732422 C5.85282444,26.2565088 5.6756404,25.8178739 5.6756404,25.2573242 L5.6756404,22 L6.64001395,22 L6.64001395,25.2573242 C6.64001395,25.5900082 6.7255889,25.8440746 6.89674138,26.0195312 C7.06789386,26.1949879 7.29938508,26.2827148 7.59122199,26.2827148 C7.88744743,26.2827148 8.12223,26.1949879 8.29557674,26.0195312 C8.46892348,25.8440746 8.55559555,25.5900082 8.55559555,25.2573242 L8.55559555,22 L9.5199691,22 Z M12.8508429,25.9033203 L11.2973129,25.9033203 L10.9747579,26.9765625 L9.97088779,26.9765625 L11.5869541,22 L12.5710759,22 L14.1805594,26.9765625 L13.1766893,26.9765625 L12.8508429,25.9033203 Z M11.534292,25.1206055 L12.6171552,25.1206055 L12.0872434,23.3671875 L12.0674951,23.3671875 L11.534292,25.1206055 Z M18.4231447,25.3769531 L18.442893,25.3769531 L19.0781288,22 L20.0688334,22 L18.9497651,26.9765625 L18.0578019,26.9765625 L17.1757127,23.6987305 L17.1559645,23.6987305 L16.2771667,26.9765625 L15.3852035,26.9765625 L14.2661352,22 L15.2568398,22 L15.895367,25.3735352 L15.9151152,25.3735352 L16.7774561,22 L17.5542211,22 L18.4231447,25.3769531 Z M23.3174228,24.7890625 L21.5400791,24.7890625 L21.5400791,26.2109375 L23.6531433,26.2109375 L23.6531433,26.9765625 L20.5789969,26.9765625 L20.5789969,22 L23.6465605,22 L23.6465605,22.769043 L21.5400791,22.769043 L21.5400791,24.0200195 L23.3174228,24.0200195 L23.3174228,24.7890625 Z M25.0651442,26.9765625 L24.104062,26.9765625 L24.104062,22 L25.0651442,22 L25.0651442,26.9765625 Z" id="HUAWEI-Copy-2" fill="#FFFFFF"></path>
                                </g>
                                <g id="Group" transform="translate(41.000000, 7.000000)" fill="#FFFFFF">
                                    <path d="M4.73694825,6.08744286 C4.58897365,5.62401429 4.40468794,5.16058571 4.18327206,4.69715714 C5.21609111,4.34944286 6.13888476,4.02201429 6.95110698,3.71215714 L6.95110698,0.236442857 L8.44573238,0.236442857 L8.44573238,3.01715714 C9.58912286,2.47687143 10.7514879,1.76258571 11.9331006,0.873728571 L12.8187641,1.97444286 C11.4902689,2.9403 10.0319546,3.80915714 8.44573238,4.5813 L8.44573238,5.2763 C8.40846571,5.97172857 8.74072603,6.3003 9.44210381,6.2613 L10.6046054,6.2613 C11.1944562,6.3003 11.5637102,6.02944286 11.7116848,5.45015714 C11.785126,5.10258571 11.8405483,4.60115714 11.8776784,3.94401429 C12.3940879,4.13772857 12.8741863,4.29172857 13.3170181,4.40744286 C13.2063102,5.10258571 13.0956022,5.70201429 12.9848943,6.2033 C12.799653,7.16915714 12.1173863,7.63258571 10.9367292,7.59358571 L8.88856413,7.59358571 C7.55993238,7.67158571 6.91397683,7.0143 6.95110698,5.62401429 L6.95110698,5.21858571 C6.28672286,5.48915714 5.54821492,5.77872857 4.73694825,6.08744286 Z M0.142364127,10.7218714 L0.142364127,9.27358571 L5.95473556,9.27358571 L5.95473556,7.76744286 L7.44936095,7.76744286 L7.44936095,9.27358571 L13.3170181,9.27358571 L13.3170181,10.7218714 L7.44936095,10.7218714 L7.44936095,13.9080143 L5.95473556,13.9080143 L5.95473556,10.7218714 L0.142364127,10.7218714 Z M0.585195873,5.68201429 C0.474624444,5.18044286 0.289383175,4.63901429 0.0316561905,4.05987143 C1.50717048,3.05615714 2.76222444,1.70472857 3.79572603,0.00487142857 L5.23506571,0.584157143 C4.7549673,1.31815714 4.25684984,2.01344286 3.74044032,2.66944286 L3.74044032,7.9413 L2.24595143,7.9413 L2.24595143,4.23358571 C1.76585302,4.73615714 1.21231333,5.21858571 0.585195873,5.68201429 Z" id="Fill-170"></path>
                                    <path d="M23.3031606,9.96884286 C22.9336337,9.50541429 22.398386,8.88798571 21.6976908,8.11498571 C21.4762749,7.84541429 21.3102813,7.65155714 21.1995733,7.53584286 L22.251367,6.60898571 C23.0626337,7.38198571 23.8012781,8.11498571 24.4655257,8.81012857 L23.3031606,9.96884286 Z M17.7122051,3.2487 C17.1585289,2.51555714 16.5307289,1.8007 15.8300337,1.10527143 L16.937113,0.178414286 C17.1585289,0.372128571 17.4907892,0.699842857 17.933621,1.16341429 C18.3764527,1.5887 18.7085765,1.91641429 18.9299924,2.14827143 L17.7122051,3.2487 Z M15.8300337,13.9659857 C15.7556368,13.8881286 15.66404,13.7722714 15.5533321,13.6184143 C15.1839416,13.1549857 14.8890844,12.8072714 14.6676686,12.5757 C17.8038019,10.6448429 19.4645575,8.11498571 19.6495257,4.9867 L14.9997924,4.9867 L14.9997924,3.48055714 L19.8156559,3.48055714 C19.9265003,2.36084286 19.981786,1.20241429 19.981786,0.00484285714 L21.6424051,0.00484285714 C21.5680083,1.5887 21.494567,2.74741429 21.4209892,3.48055714 L27.2333606,3.48055714 C27.196094,4.13784286 27.1408083,5.29627143 27.0672305,6.95627143 C26.9928337,8.81012857 26.9375479,10.0847 26.9011003,10.7797 C26.8639702,12.6334143 25.9601511,13.5604143 24.1886876,13.5604143 C23.3394717,13.5984143 22.4355162,13.6184143 21.4762749,13.6184143 C21.3657035,13.0001286 21.2358844,12.4595571 21.0888654,11.9964143 C21.9746654,12.0741286 22.8049067,12.1122714 23.5798622,12.1122714 C24.7605194,12.1899857 25.3513257,11.5908429 25.3513257,10.3162714 C25.3513257,9.96884286 25.3693448,9.38927143 25.4066114,8.57855714 C25.4801892,6.91841429 25.5354749,5.7207 25.5727416,4.9867 L21.3102813,4.9867 C21.0144686,8.81012857 19.1877194,11.8035571 15.8300337,13.9659857 Z" id="Fill-171"></path>
                                    <path d="M30.3554063,0.931714286 L41.1497714,0.931714286 L41.1497714,2.49557143 L30.3554063,2.49557143 L30.3554063,0.931714286 Z M29.1930413,6.78242857 L29.1930413,5.21857143 L42.422981,5.21857143 L42.422981,6.78242857 L35.7802317,6.78242857 C34.8574381,8.135 33.7130921,9.64114286 32.3482857,11.3011429 C33.5662095,11.3011429 35.6878159,11.2242857 38.7140603,11.0695714 C38.1233905,10.1812857 37.5145651,9.37057143 36.8873111,8.63628571 L38.1606571,7.82542857 C38.7140603,8.48257143 39.5627302,9.56314286 40.7069397,11.0695714 C41.2967905,11.8425714 41.7214667,12.3628571 41.9801492,12.6334286 L40.5962317,13.5602857 L39.765854,12.4018571 C38.5109365,12.4397143 36.5180571,12.5367143 33.7876254,12.6914286 C33.196819,12.7295714 32.7539873,12.7495714 32.4589937,12.7495714 C31.7574794,12.7872857 31.1485175,12.8652857 30.6322444,12.9811429 L29.9125746,11.417 C30.391854,11.1472857 30.8718159,10.7218571 31.3519143,10.1427143 C32.2375778,9.06185714 33.0306889,7.94128571 33.7320667,6.78242857 L29.1930413,6.78242857 Z" id="Fill-172"></path>
                                </g>
                            </g>
                        </g>
                    </g>
                </g>
            </g>
        </g>
    </g>
</svg>